{"glyphs":{":":{"x_min":0,"x_max":324,"ha":324,"o":"m 20 130 q 20 172 40 206 q 59 241 92 260 q 124 280 161 280 q 190 280 215 269 q 241 258 261 239 q 281 219 292 191 q 304 162 304 129 q 304 68 263 28 q 223 -12 160 -12 q 125 -12 92 8 q 60 28 40 62 q 20 95 20 130 z m 20 459 q 20 500 40 535 q 59 570 92 590 q 125 610 161 610 q 197 610 231 591 q 264 571 284 536 q 304 501 304 458 q 304 429 294 403 q 283 377 263 357 q 243 338 217 327 q 191 317 160 317 q 124 317 92 337 q 60 358 40 391 q 20 425 20 459 z"},"$":{"x_min":0,"x_max":560,"ha":560,"o":"m 478 608 l 403 507 q 469 463 505 399 q 540 335 540 263 q 540 195 512 136 q 485 78 434 38 q 383 -1 315 -15 l 315 -96 l 229 -96 l 229 -19 q 173 -15 125 10 q 76 36 20 86 l 124 222 q 21 310 21 432 q 21 488 45 541 q 69 593 113 631 q 160 671 228 683 l 228 755 l 314 755 l 314 688 q 362 682 401 662 q 441 643 478 608 z"},"?":{"x_min":0,"x_max":508,"ha":508,"o":"m 121 418 l 29 418 q 20 448 20 482 q 20 529 38 572 q 56 614 89 647 q 122 680 164 698 q 206 716 254 716 q 302 716 344 698 q 387 680 419 647 q 452 615 470 573 q 488 530 488 482 q 488 420 459 368 q 430 316 380 285 l 300 285 q 321 278 340 264 q 358 249 371 232 q 383 215 390 193 q 398 171 398 146 q 398 106 378 73 q 358 40 325 20 q 292 0 252 0 q 212 0 178 20 q 145 40 125 73 q 105 106 105 146 q 105 193 133 232 q 161 270 204 285 l 121 285 z"},"<":{"x_min":0,"x_max":336,"ha":336,"o":"m 316 0 l 20 304 l 316 603 z"},"'":{"x_min":0,"x_max":153,"ha":153,"o":"m 20 489 l 20 716 l 133 716 z"},"=":{"x_min":0,"x_max":441,"ha":441,"o":"m 20 169 l 421 169 l 421 79 l 20 79 z m 20 327 l 421 327 l 421 237 l 20 237 z"},"a":{"x_min":0,"x_max":469,"ha":469,"o":"m 449 314 l 449 0 l 177 0 q 113 0 66 40 q 20 79 20 162 q 20 193 37 229 q 53 264 91 289 q 129 314 189 314 l 103 390 q 159 477 256 477 q 297 477 333 462 q 369 447 395 423 q 420 400 435 371 q 449 342 449 314 z"},"L":{"x_min":0,"x_max":521,"ha":521,"o":"m 242 226 l 501 226 l 501 0 l 20 0 l 20 716 l 242 716 z"},"3":{"x_min":0,"x_max":530,"ha":530,"o":"m 29 326 l 260 463 l 105 595 q 119 634 142 661 q 166 688 198 702 q 230 716 266 716 q 312 716 351 693 q 391 671 413 631 q 436 592 436 543 q 436 489 407 449 q 456 419 483 366 q 510 314 510 252 q 510 198 491 153 q 473 107 439 72 q 405 38 361 19 q 316 0 263 0 q 216 0 171 19 q 127 38 93 72 q 59 105 40 152 q 20 199 20 252 q 20 285 29 326 z"},";":{"x_min":0,"x_max":325,"ha":325,"o":"m 20 459 q 20 500 40 535 q 59 570 92 590 q 125 610 161 610 q 197 610 231 591 q 264 571 284 536 q 304 501 304 458 q 304 429 294 403 q 283 377 263 357 q 243 338 217 327 q 191 317 160 317 q 124 317 92 337 q 60 358 40 391 q 20 425 20 459 z m 117 -107 l 149 -9 q 108 -2 79 18 q 50 38 35 66 q 20 95 20 130 q 20 172 40 206 q 59 241 92 260 q 124 280 161 280 q 189 280 215 269 q 241 258 261 238 q 282 218 293 190 q 305 163 305 133 q 305 92 282 46 q 259 0 216 -40 q 173 -81 117 -107 z"},"J":{"x_min":0,"x_max":626,"ha":626,"o":"m 332 716 l 606 716 l 606 272 q 606 216 583 167 q 560 117 519 79 q 478 42 424 21 q 370 0 312 0 q 235 0 167 39 q 100 79 60 146 q 20 213 20 292 l 20 323 l 332 323 z"},"V":{"x_min":0,"x_max":777,"ha":777,"o":"m 20 716 l 757 716 l 394 0 z"},"\"":{"x_min":0,"x_max":313,"ha":313,"o":"m 293 716 l 293 490 l 180 716 z m 20 716 l 133 716 l 133 489 z"},"7":{"x_min":0,"x_max":522,"ha":522,"o":"m 207 490 l 20 490 l 20 716 l 502 716 l 254 0 l 32 0 z"},"S":{"x_min":0,"x_max":590,"ha":590,"o":"m 528 597 l 403 489 q 408 484 435 460 q 463 437 493 405 q 522 373 546 333 q 570 292 570 255 q 570 201 548 154 q 525 106 486 72 q 446 38 395 19 q 344 0 290 0 q 234 0 184 15 q 133 30 91 54 q 50 78 20 105 l 157 247 q 157 248 134 275 q 110 301 84 337 q 58 373 39 415 q 20 456 20 493 q 20 542 42 583 q 64 625 103 655 q 142 686 191 702 q 240 718 291 718 q 327 718 365 707 q 404 696 435 679 q 467 663 491 641 q 516 619 528 597 z"},"}":{"x_min":0,"x_max":249,"ha":249,"o":"m 108 693 q 139 673 153 659 q 168 644 168 619 l 168 359 l 229 286 l 176 197 l 176 -91 q 176 -115 148 -141 q 121 -166 85 -183 q 49 -200 31 -200 q 20 -200 20 -194 l 20 719 q 20 726 30 726 q 42 726 68 715 q 93 704 108 693 z"},"Z":{"x_min":0,"x_max":580,"ha":580,"o":"m 20 489 l 20 716 l 560 716 l 409 228 l 560 228 l 560 2 l 20 2 l 170 489 z"},"x":{"x_min":0,"x_max":524,"ha":524,"o":"m 159 227 l 20 472 l 486 472 l 358 260 l 504 0 l 20 0 z"},")":{"x_min":0,"x_max":264,"ha":264,"o":"m 244 361 q 244 260 212 189 q 180 119 139 80 q 98 41 66 24 q 34 8 20 4 l 20 714 q 27 714 62 697 q 98 680 139 641 q 181 603 213 532 q 244 462 244 361 z"},"&":{"x_min":0,"x_max":646,"ha":646,"o":"m 359 473 l 626 0 l 294 0 q 212 0 150 32 q 88 64 54 119 q 20 174 20 241 q 20 292 42 339 q 64 386 107 421 q 150 456 206 474 q 138 515 138 587 q 138 622 157 653 q 176 683 209 700 q 242 718 284 718 q 345 718 385 679 q 426 641 426 587 q 426 552 408 522 q 391 493 359 473 z"},"_":{"x_min":0,"x_max":539,"ha":539,"o":"m 20 -97 l 519 -97 l 519 -235 l 20 -235 z"},"v":{"x_min":0,"x_max":568,"ha":568,"o":"m 20 477 l 548 477 l 289 2 z"},"O":{"x_min":0,"x_max":756,"ha":756,"o":"m 378 716 q 452 716 517 688 q 583 660 631 611 q 680 562 708 497 q 736 432 736 358 q 736 261 688 179 q 639 97 557 48 q 475 0 378 0 q 281 0 199 48 q 117 97 68 179 q 20 261 20 358 q 20 455 68 537 q 117 619 199 667 q 281 716 378 716 z"},"(":{"x_min":0,"x_max":265,"ha":265,"o":"m 20 361 q 20 461 52 531 q 83 602 125 640 q 167 679 199 694 q 231 710 245 714 l 245 4 q 220 11 170 42 q 120 73 70 152 q 21 231 20 361 z"},"C":{"x_min":0,"x_max":673,"ha":673,"o":"m 653 604 l 385 340 l 637 89 q 637 83 592 60 q 547 38 487 19 q 426 0 380 0 q 283 0 200 49 q 117 99 69 182 q 20 265 20 361 q 21 434 49 499 q 78 563 127 610 q 176 658 242 685 q 308 712 380 712 q 430 712 478 698 q 526 684 565 665 q 604 645 628 627 q 653 610 653 604 z"},"W":{"x_min":0,"x_max":1092,"ha":1092,"o":"m 20 716 l 1072 716 l 708 0 l 546 298 l 389 0 z"},"A":{"x_min":0,"x_max":762,"ha":762,"o":"m 742 0 l 20 0 l 378 716 z"},"f":{"x_min":0,"x_max":368,"ha":368,"o":"m 256 0 l 20 0 l 20 548 q 20 583 47 622 q 74 661 128 688 q 182 715 256 715 q 274 715 302 708 q 330 702 348 693 l 240 478 l 328 478 l 328 278 l 256 278 z"},"Q":{"x_min":0,"x_max":765,"ha":765,"o":"m 291 -18 l 285 13 q 210 33 149 84 q 88 134 54 206 q 20 277 20 358 q 20 455 68 537 q 117 619 199 667 q 281 716 378 716 q 475 716 557 668 q 639 620 687 537 q 735 455 735 358 q 735 321 728 286 q 721 251 708 220 q 695 189 675 160 q 656 131 631 106 l 745 -18 z"},"w":{"x_min":0,"x_max":797,"ha":797,"o":"m 20 477 l 777 477 l 515 2 l 399 201 l 286 2 z"},"-":{"x_min":0,"x_max":331,"ha":331,"o":"m 311 265 l 20 265 l 20 461 l 311 461 z"},"E":{"x_min":0,"x_max":706,"ha":706,"o":"m 489 226 l 686 226 l 686 0 l 20 0 l 20 716 l 259 716 l 259 469 l 489 469 z"},"s":{"x_min":0,"x_max":431,"ha":431,"o":"m 381 393 l 293 324 q 293 324 314 306 q 334 289 356 267 q 378 245 395 219 q 411 193 411 169 q 411 121 383 83 q 354 45 308 23 q 261 2 211 2 q 155 2 105 22 q 56 42 20 71 l 119 163 q 119 163 91 194 q 63 225 42 260 q 20 295 20 327 q 20 369 47 403 q 75 436 120 456 q 165 475 214 475 q 248 475 283 463 q 317 451 343 432 q 369 413 381 393 z"},">":{"x_min":0,"x_max":336,"ha":336,"o":"m 20 603 l 316 304 l 20 0 z"},"l":{"x_min":0,"x_max":255,"ha":255,"o":"m 20 5 l 20 717 l 235 717 l 235 5 z"},"8":{"x_min":0,"x_max":527,"ha":527,"o":"m 401 443 q 449 417 478 363 q 507 309 507 244 q 507 197 489 153 q 470 110 437 75 q 404 41 359 20 q 314 0 263 0 q 195 0 140 33 q 84 67 52 125 q 20 182 20 250 q 20 317 49 369 q 79 420 134 449 q 99 493 99 540 q 99 614 147 665 q 196 716 266 716 q 314 716 354 693 q 393 670 416 631 q 439 592 439 546 q 439 489 401 443 z"},"\\":{"x_min":0,"x_max":605,"ha":605,"o":"m 20 718 l 224 718 l 585 -92 l 381 -92 z"},"e":{"x_min":0,"x_max":514,"ha":514,"o":"m 494 240 l 256 240 l 461 113 q 428 61 374 31 q 319 0 258 0 q 193 0 139 32 q 84 64 52 119 q 20 173 20 238 q 20 302 52 358 q 84 413 139 445 q 193 477 258 477 q 306 477 349 459 q 393 440 426 407 q 458 373 476 331 q 494 289 494 240 z"},"b":{"x_min":0,"x_max":514,"ha":514,"o":"m 219 715 l 219 477 l 257 477 q 305 477 348 459 q 391 441 424 407 q 458 374 476 331 q 494 287 494 238 q 494 189 476 146 q 458 103 424 70 q 391 37 348 18 q 304 0 257 0 l 219 0 l 20 0 l 20 715 z"},"%":{"x_min":0,"x_max":926,"ha":926,"o":"m 200 345 q 152 345 111 370 q 69 395 44 438 q 20 480 20 529 q 20 578 45 621 q 69 664 112 689 q 154 714 201 714 q 238 714 271 699 q 303 685 327 659 q 352 634 365 600 q 379 567 379 529 q 379 491 365 458 q 351 424 326 399 q 301 374 268 359 q 236 345 200 345 z m 726 1 q 678 1 636 26 q 595 51 570 94 q 546 136 546 185 q 546 234 571 277 q 595 320 637 345 q 680 370 727 370 q 763 370 796 356 q 828 342 853 316 q 878 290 892 256 q 906 223 906 184 q 906 135 881 93 q 857 50 815 26 q 774 1 726 1 z m 331 0 l 242 0 l 585 716 l 673 716 z"},"m":{"x_min":0,"x_max":675,"ha":675,"o":"m 20 0 l 20 477 l 126 477 q 154 477 181 461 q 208 446 224 423 q 240 400 240 382 l 241 382 l 241 477 l 337 477 q 367 477 394 467 q 420 457 437 434 q 454 412 454 378 l 455 378 l 455 477 l 549 477 q 567 477 593 462 q 619 447 637 423 q 655 399 655 373 l 655 0 z"},"#":{"x_min":0,"x_max":815,"ha":815,"o":"m 447 303 l 485 407 l 368 407 l 330 303 z m 340 718 l 481 718 l 418 539 l 529 539 l 592 718 l 733 718 l 670 539 l 795 539 l 746 407 l 623 407 l 586 303 l 712 303 l 663 171 l 539 171 l 475 -7 l 334 -7 l 398 171 l 287 171 l 223 -7 l 82 -7 l 146 171 l 20 171 l 69 303 l 193 303 l 229 407 l 103 407 l 151 539 l 277 539 z"},",":{"x_min":0,"x_max":325,"ha":325,"o":"m 117 -107 l 149 -9 q 108 -2 79 18 q 50 38 35 66 q 20 95 20 130 q 20 172 40 206 q 59 241 92 260 q 124 280 161 280 q 189 280 215 269 q 241 258 261 238 q 282 218 293 190 q 305 163 305 133 q 305 92 282 46 q 259 0 216 -40 q 173 -81 117 -107 z"},"n":{"x_min":0,"x_max":494,"ha":494,"o":"m 474 240 l 474 0 l 20 0 l 20 477 l 240 477 q 304 477 348 463 q 392 450 420 421 q 448 393 461 348 q 474 304 474 240 z"},"h":{"x_min":0,"x_max":485,"ha":485,"o":"m 240 477 l 348 477 q 383 477 409 462 q 436 446 450 420 q 465 394 465 362 l 465 0 l 20 0 l 20 715 l 240 715 z"},"z":{"x_min":0,"x_max":430,"ha":430,"o":"m 20 327 l 20 477 l 410 477 l 301 153 l 410 153 l 410 0 l 20 0 l 130 327 z"},"B":{"x_min":0,"x_max":732,"ha":732,"o":"m 20 0 l 20 716 l 497 716 q 575 716 619 666 q 664 615 664 543 q 664 484 637 450 q 609 415 591 404 q 593 404 614 388 q 635 373 656 349 q 677 325 695 286 q 712 246 712 199 q 712 150 689 104 q 666 58 627 29 q 588 0 545 0 z"},"K":{"x_min":0,"x_max":700,"ha":700,"o":"m 20 0 l 20 714 l 642 714 l 480 379 l 680 0 z"},"R":{"x_min":0,"x_max":737,"ha":737,"o":"m 20 2 l 20 716 l 483 716 q 534 716 574 693 q 614 669 636 627 q 658 585 658 532 q 658 481 638 439 q 619 396 589 372 q 560 348 535 348 l 535 337 l 717 2 z"},"T":{"x_min":0,"x_max":708,"ha":708,"o":"m 228 492 l 20 492 l 20 716 l 688 716 l 688 483 l 493 483 l 493 2 l 228 2 z"},"P":{"x_min":0,"x_max":690,"ha":690,"o":"m 314 240 l 314 0 l 20 0 l 20 716 l 479 716 q 517 716 552 693 q 586 669 613 631 q 640 593 655 548 q 670 504 670 467 q 670 430 655 390 q 640 351 614 316 q 587 282 551 261 q 514 240 476 240 z"},"|":{"x_min":0,"x_max":177,"ha":177,"o":"m 20 764 l 157 764 l 157 -235 l 20 -235 z"},"t":{"x_min":0,"x_max":371,"ha":371,"o":"m 20 591 l 75 591 l 75 715 l 295 715 l 295 591 l 351 591 l 351 387 l 295 387 l 295 0 l 186 0 q 145 0 110 30 q 75 60 75 111 l 75 387 l 20 387 z"},"M":{"x_min":0,"x_max":981,"ha":981,"o":"m 961 716 l 961 0 l 20 0 l 20 716 l 511 458 z"},"g":{"x_min":0,"x_max":514,"ha":514,"o":"m 256 477 l 494 477 l 494 0 q 494 -40 474 -79 q 453 -117 418 -148 q 383 -178 340 -196 q 297 -214 256 -214 q 227 -214 181 -195 q 136 -177 107 -151 l 260 16 q 183 16 128 48 q 74 79 47 131 q 20 182 20 240 q 20 299 46 353 q 71 407 125 442 q 178 477 256 477 z"},"j":{"x_min":0,"x_max":260,"ha":260,"o":"m 20 -214 l 20 477 l 240 477 l 240 -23 q 240 -77 209 -121 q 179 -165 133 -189 q 88 -214 46 -214 z"},"i":{"x_min":0,"x_max":265,"ha":265,"o":"m 20 0 l 20 476 l 245 476 l 245 0 z"},"y":{"x_min":0,"x_max":582,"ha":582,"o":"m 194 82 l 20 477 l 562 477 l 249 -214 l 60 -214 z"},"@":{"x_min":0,"x_max":970,"ha":970,"o":"m 660 375 l 660 144 q 669 141 678 141 q 707 141 736 159 q 765 176 788 207 q 811 237 825 281 q 839 324 839 371 q 839 427 817 474 q 795 521 754 555 q 713 588 656 607 q 599 625 528 625 q 460 625 401 607 q 341 590 292 556 q 216 504 175 427 q 134 349 134 257 q 134 186 159 128 q 184 69 231 28 q 278 -14 345 -36 q 412 -58 492 -58 q 544 -58 594 -48 q 643 -38 690 -17 q 737 4 776 33 l 833 -46 q 752 -104 666 -134 q 579 -163 480 -163 q 390 -163 310 -135 q 230 -108 167 -58 q 130 -28 103 6 q 75 41 56 80 q 38 119 29 163 q 20 208 20 254 q 20 339 47 414 q 75 489 128 553 q 176 610 239 649 q 301 689 375 709 q 448 729 528 729 q 621 729 698 703 q 776 677 833 629 q 890 580 920 514 q 950 448 950 371 q 950 289 916 220 q 882 150 821 102 q 786 74 744 60 q 703 45 660 45 q 612 45 582 58 l 448 58 q 348 58 297 106 q 246 153 246 232 q 246 304 296 340 q 345 377 430 377 l 310 450 q 345 485 379 498 q 414 511 465 511 q 506 511 551 500 q 596 489 628 458 q 660 427 660 375 z"},".":{"x_min":0,"x_max":322,"ha":322,"o":"m 161 282 q 198 282 231 263 q 264 244 283 212 q 302 179 302 141 q 302 103 283 70 q 264 38 231 19 q 199 0 161 0 q 123 0 91 19 q 59 38 39 70 q 20 102 20 141 q 20 180 39 212 q 59 244 91 263 q 124 282 161 282 z"},"p":{"x_min":0,"x_max":514,"ha":514,"o":"m 257 0 l 219 0 l 219 -238 l 20 -238 l 20 477 l 219 477 l 257 477 q 305 477 348 459 q 391 441 424 407 q 458 374 476 331 q 494 287 494 238 q 494 189 476 146 q 458 103 424 70 q 391 37 348 18 q 304 0 257 0 z"},"X":{"x_min":0,"x_max":792,"ha":792,"o":"m 772 716 l 591 368 l 763 2 l 20 2 l 216 368 l 30 716 z"},"*":{"x_min":0,"x_max":505,"ha":505,"o":"m 339 267 l 252 393 l 165 266 l 61 341 l 157 460 l 20 499 l 60 621 l 192 574 l 192 714 l 313 714 l 313 574 l 445 620 l 485 499 l 346 463 l 443 340 z"},"Y":{"x_min":0,"x_max":786,"ha":786,"o":"m 20 714 l 766 714 l 570 316 l 570 0 l 216 0 l 216 321 z"},"c":{"x_min":0,"x_max":446,"ha":446,"o":"m 426 407 l 257 238 l 426 69 q 393 37 349 18 q 306 0 258 0 q 193 0 139 32 q 84 64 52 119 q 20 173 20 238 q 20 302 52 358 q 84 413 139 445 q 193 477 258 477 q 356 477 426 407 z"},"!":{"x_min":0,"x_max":323,"ha":323,"o":"m 148 292 l 20 292 l 20 716 l 303 716 l 303 292 l 178 292 q 235 281 269 243 q 303 205 303 149 q 303 112 284 77 q 265 43 233 21 q 201 0 163 0 q 126 0 93 20 q 60 41 40 75 q 20 110 20 149 q 20 268 148 292 z"},"/":{"x_min":0,"x_max":604,"ha":604,"o":"m 584 719 l 224 -91 l 20 -91 l 380 719 z"},"[":{"x_min":0,"x_max":304,"ha":304,"o":"m 20 1 l 20 707 l 284 707 l 284 650 l 192 650 l 192 71 l 284 71 l 284 1 z"},"6":{"x_min":0,"x_max":601,"ha":601,"o":"m 300 2 q 224 2 160 40 q 96 78 58 142 q 20 207 20 282 l 20 339 q 20 379 38 429 q 55 479 81 527 q 106 576 135 626 q 165 675 189 716 l 408 716 l 327 561 q 378 557 426 533 q 473 510 508 472 q 543 433 562 385 q 581 337 581 282 q 581 207 543 142 q 505 78 441 40 q 376 2 300 2 z"},"r":{"x_min":0,"x_max":440,"ha":440,"o":"m 420 417 l 227 302 l 227 0 l 20 0 l 20 477 l 315 477 q 348 477 379 461 q 410 445 420 417 z"},"2":{"x_min":0,"x_max":585,"ha":585,"o":"m 532 320 l 490 249 l 565 249 l 565 -2 l 20 -2 l 240 445 q 121 445 90 445 q 60 445 42 446 q 24 446 24 446 q 24 519 60 581 q 97 643 159 679 q 221 716 294 716 q 350 716 399 695 q 448 674 486 636 q 523 598 543 550 q 564 501 564 446 q 564 412 556 379 q 547 346 532 320 z"},"{":{"x_min":0,"x_max":249,"ha":249,"o":"m 141 693 q 187 723 215 726 q 229 726 229 719 l 229 -194 q 229 -201 219 -201 q 205 -201 178 -190 q 152 -178 132 -165 q 98 -141 85 -128 q 73 -115 73 -91 l 73 197 l 20 286 l 82 359 l 82 619 q 82 645 97 659 q 112 674 141 693 z"},"9":{"x_min":0,"x_max":601,"ha":601,"o":"m 300 716 q 357 716 408 694 q 460 672 499 634 q 538 595 559 544 q 581 492 581 435 l 581 379 q 581 338 563 289 q 546 239 518 186 q 491 132 460 82 q 430 32 412 2 l 193 2 l 274 156 q 223 161 176 184 q 129 208 94 246 q 59 284 39 333 q 20 382 20 435 q 20 511 58 576 q 96 640 160 678 q 224 716 300 716 z"}," ":{"x_min":0,"x_max":285,"ha":285,"o":""},"I":{"x_min":0,"x_max":349,"ha":349,"o":"m 20 0 l 20 716 l 329 716 l 329 0 z"},"H":{"x_min":0,"x_max":694,"ha":694,"o":"m 20 0 l 20 716 l 327 716 l 327 477 l 370 477 l 370 716 l 674 716 l 674 0 l 370 0 l 370 228 l 327 228 l 327 0 z"},"4":{"x_min":0,"x_max":663,"ha":663,"o":"m 643 716 l 643 2 l 309 2 l 309 92 l 20 92 l 320 716 z"},"D":{"x_min":0,"x_max":744,"ha":744,"o":"m 20 0 l 20 716 l 368 716 q 464 716 546 667 q 628 619 676 537 q 724 454 724 358 q 724 282 695 217 q 666 151 615 102 q 563 54 496 27 q 429 0 355 0 z"},"^":{"x_min":0,"x_max":633,"ha":633,"o":"m 613 438 l 20 438 l 318 713 z"},"0":{"x_min":0,"x_max":746,"ha":746,"o":"m 370 709 l 370 708 q 455 708 521 679 q 588 651 634 601 q 680 552 703 489 q 726 426 726 359 q 726 292 704 228 q 682 164 638 113 q 594 62 529 32 q 463 3 379 3 q 294 3 227 31 q 160 60 113 110 q 66 160 43 221 q 20 283 20 350 q 20 443 60 525 q 100 607 179 658 q 258 708 370 709 z"},"F":{"x_min":0,"x_max":706,"ha":706,"o":"m 686 716 l 686 490 l 489 490 l 489 247 l 259 247 l 259 0 l 20 0 l 20 716 z"},"k":{"x_min":0,"x_max":512,"ha":512,"o":"m 240 715 l 240 477 l 465 477 l 296 240 l 492 0 l 20 0 l 20 715 z"},"u":{"x_min":0,"x_max":451,"ha":451,"o":"m 227 0 q 185 0 146 15 q 108 31 80 57 q 52 83 36 119 q 20 154 20 192 l 20 471 l 431 471 l 431 192 q 431 141 404 96 q 376 52 329 26 q 282 0 227 0 z"},"]":{"x_min":0,"x_max":304,"ha":304,"o":"m 20 707 l 284 707 l 284 1 l 20 1 l 20 71 l 112 71 l 112 650 l 20 650 z"},"U":{"x_min":0,"x_max":618,"ha":618,"o":"m 308 0 l 304 0 q 246 0 194 22 q 143 45 103 86 q 63 127 42 180 q 20 233 20 291 l 20 716 l 598 716 l 598 291 q 598 233 576 180 q 553 126 513 86 q 472 45 419 23 q 367 0 308 0 z"},"o":{"x_min":0,"x_max":518,"ha":518,"o":"m 259 477 q 323 477 378 445 q 434 413 466 358 q 498 303 498 238 q 498 173 466 119 q 434 64 378 32 q 323 0 259 0 q 194 0 139 32 q 84 64 52 119 q 20 173 20 238 q 20 302 52 358 q 84 413 139 445 q 194 477 259 477 z"},"N":{"x_min":0,"x_max":719,"ha":719,"o":"m 20 0 l 20 716 l 145 716 q 217 716 288 689 q 359 662 411 619 q 464 577 486 533 l 486 716 l 699 716 l 699 0 z"},"+":{"x_min":0,"x_max":650,"ha":650,"o":"m 254 715 l 396 715 l 396 474 l 630 474 l 630 336 l 396 336 l 396 94 l 254 94 l 254 336 l 20 336 l 20 474 l 254 474 z"},"G":{"x_min":0,"x_max":723,"ha":723,"o":"m 388 339 l 703 339 l 703 0 l 613 70 q 564 44 499 22 q 435 0 382 0 q 284 0 201 49 q 118 99 69 183 q 20 267 20 363 q 20 459 69 541 q 118 622 202 669 q 285 716 382 716 q 452 716 514 691 q 576 667 610 643 q 645 619 657 607 z"},"q":{"x_min":0,"x_max":514,"ha":514,"o":"m 295 -238 l 295 0 l 257 0 q 193 0 139 32 q 84 64 52 119 q 20 173 20 238 q 20 302 52 358 q 84 413 139 445 q 193 477 257 477 l 295 477 l 494 477 l 494 -238 z"},"d":{"x_min":0,"x_max":514,"ha":514,"o":"m 257 477 l 295 477 l 295 715 l 494 715 l 494 0 l 295 0 l 257 0 q 193 0 139 32 q 84 64 52 119 q 20 173 20 238 q 20 302 52 358 q 84 413 139 445 q 193 477 257 477 z"},"1":{"x_min":0,"x_max":321,"ha":321,"o":"m 301 2 l 20 2 l 20 715 l 301 715 z"},"5":{"x_min":0,"x_max":580,"ha":580,"o":"m 291 261 l 20 417 l 20 716 l 514 716 l 514 517 l 402 517 q 473 484 517 418 q 560 352 560 272 q 560 199 524 137 q 487 75 425 38 q 363 2 290 2 q 238 2 189 22 q 141 42 103 78 q 65 114 44 162 q 22 209 20 261 z"}}}
